<?xml version="1.0" encoding="UTF-8" standalone="no"?>
<svg
   width="20"
   height="17"
   viewBox="0 0 20 17"
   version="1.1"
   id="svg1"
   sodipodi:docname="icon-twitter-hvr.svg"
   inkscape:version="1.3.2 (091e20e, 2023-11-25, custom)"
   xmlns:inkscape="http://www.inkscape.org/namespaces/inkscape"
   xmlns:sodipodi="http://sodipodi.sourceforge.net/DTD/sodipodi-0.dtd"
   xmlns="http://www.w3.org/2000/svg"
   xmlns:svg="http://www.w3.org/2000/svg">
  <defs
     id="defs1" />
  <sodipodi:namedview
     id="namedview1"
     pagecolor="#ffffff"
     bordercolor="#666666"
     borderopacity="1.0"
     inkscape:showpageshadow="2"
     inkscape:pageopacity="0.0"
     inkscape:pagecheckerboard="0"
     inkscape:deskcolor="#d1d1d1"
     inkscape:zoom="16.632353"
     inkscape:cx="-21.824934"
     inkscape:cy="8.627763"
     inkscape:window-width="2560"
     inkscape:window-height="1369"
     inkscape:window-x="1912"
     inkscape:window-y="-8"
     inkscape:window-maximized="1"
     inkscape:current-layer="svg1" />
  <path
     fill="#584D62"
     d="M20 2.172a8.192 8.192 0 0 1-2.357.646 4.11 4.11 0 0 0 1.805-2.27 8.22 8.22 0 0 1-2.606.996A4.096 4.096 0 0 0 13.847.248c-2.65 0-4.596 2.472-3.998 5.037A11.648 11.648 0 0 1 1.392 1a4.109 4.109 0 0 0 1.27 5.478 4.086 4.086 0 0 1-1.858-.513c-.045 1.9 1.318 3.679 3.291 4.075a4.113 4.113 0 0 1-1.853.07 4.106 4.106 0 0 0 3.833 2.849A8.25 8.25 0 0 1 0 14.658a11.616 11.616 0 0 0 6.29 1.843c7.618 0 11.923-6.434 11.663-12.205A8.354 8.354 0 0 0 20 2.172Z"
     id="path1"
     style="fill:#24053e;fill-opacity:1" />
</svg>
